<?xml version="1.0" standalone="no"?>
<!DOCTYPE svg PUBLIC "-//W3C//DTD SVG 20010904//EN"
 "http://www.w3.org/TR/2001/REC-SVG-20010904/DTD/svg10.dtd">
<svg version="1.0" xmlns="http://www.w3.org/2000/svg"
 width="327.000000pt" height="203.000000pt" viewBox="0 0 327.000000 203.000000"
 preserveAspectRatio="xMidYMid meet">
<metadata>
Created by potrace 1.15, written by Peter Selinger 2001-2017
</metadata>
<g transform="translate(0.000000,203.000000) scale(0.100000,-0.100000)"
fill="#000000" stroke="none">
<path d="M286 1274 c-27 -28 -32 -64 -9 -71 7 -3 9 3 6 16 -6 24 25 77 37 65
5 -5 2 -47 -6 -94 -15 -92 -17 -147 -4 -90 5 19 12 52 15 74 8 50 18 39 30
-37 7 -43 15 -63 26 -65 12 -2 18 13 28 68 15 83 31 83 31 0 0 -55 9 -78 28
-66 11 7 -5 207 -18 220 -16 16 -26 -6 -41 -83 -6 -36 -14 -70 -18 -76 -3 -5
-12 28 -21 75 -13 72 -18 85 -36 88 -12 2 -32 -8 -48 -24z"/>
<path d="M1550 1250 c0 -27 -3 -30 -31 -30 -25 0 -32 -6 -45 -37 -28 -65 10
-134 57 -105 16 11 24 11 36 1 12 -10 19 -10 35 0 15 9 23 9 34 0 8 -6 22 -9
32 -7 15 4 19 -1 20 -28 1 -24 -3 -34 -14 -34 -8 0 -12 -4 -9 -10 15 -24 55 8
55 45 0 13 6 26 13 28 10 4 10 6 0 6 -9 1 -13 22 -13 71 0 56 -3 70 -15 70
-12 0 -15 -13 -15 -60 0 -45 -4 -62 -15 -67 -23 -8 -28 2 -33 67 -5 72 -22 80
-22 11 0 -59 -7 -81 -26 -81 -11 0 -14 20 -14 95 0 78 -3 95 -15 95 -10 0 -15
-10 -15 -30z"/>
<path d="M756 1262 c-10 -17 -8 -149 3 -170 13 -24 40 -29 59 -10 9 9 15 9 24
0 17 -17 49 -15 76 4 20 14 22 14 22 0 0 -9 7 -16 15 -16 10 0 15 16 17 63 3
56 5 62 26 65 37 6 25 19 -18 19 l-40 0 0 -51 c0 -56 -12 -76 -46 -76 -30 0
-42 19 -39 62 4 43 11 58 30 58 22 0 25 -30 5 -50 -11 -11 -16 -20 -11 -20 18
0 42 33 39 54 -2 15 -11 22 -33 24 -36 5 -55 -19 -55 -69 0 -38 -21 -66 -40
-54 -7 4 -11 32 -10 69 3 86 1 106 -9 106 -6 0 -12 -4 -15 -8z"/>
<path d="M675 1210 c-4 -12 0 -26 10 -36 22 -22 16 -78 -8 -82 -14 -3 -18 1
-15 16 4 27 -16 28 -22 1 -3 -12 -11 -24 -18 -27 -9 -3 -12 16 -12 67 0 56 -3
71 -15 71 -11 0 -15 -13 -15 -52 0 -60 -11 -84 -34 -75 -12 5 -16 21 -16 67 0
35 -4 60 -10 60 -7 0 -10 -27 -8 -72 l3 -73 33 1 c36 2 40 -3 15 -22 -17 -13
-17 -14 0 -8 13 5 17 1 17 -16 0 -18 -4 -21 -22 -17 -20 6 -20 5 -4 -11 16
-16 18 -16 37 7 10 13 19 31 19 41 0 23 22 31 60 23 21 -4 36 0 49 11 17 16
17 20 3 81 -16 65 -35 83 -47 45z"/>
<path d="M1790 1218 c0 -7 7 -32 15 -55 17 -48 11 -73 -16 -73 -16 0 -18 5
-13 25 3 14 2 25 -4 25 -16 0 -25 -52 -10 -61 21 -14 50 -10 70 8 17 15 19 15
36 0 25 -23 55 -21 77 3 l18 20 22 -20 c25 -23 58 -26 74 -6 9 11 7 12 -13 9
-28 -6 -40 10 -42 52 -2 36 12 65 31 65 21 0 19 -47 -2 -59 -10 -6 -13 -11 -6
-11 6 0 19 10 27 22 19 27 5 58 -28 58 -30 0 -45 -19 -53 -64 -8 -51 -20 -45
-34 19 -12 54 -31 71 -43 39 -3 -8 1 -26 10 -39 20 -31 15 -79 -10 -83 -15 -3
-18 0 -13 17 6 22 -7 38 -18 21 -13 -21 -22 -8 -34 45 -8 35 -18 55 -27 55 -8
0 -14 -6 -14 -12z"/>
<path d="M3095 869 c-146 -69 -385 -130 -654 -164 -168 -22 154 -34 379 -15
140 12 263 29 278 39 13 8 75 171 64 170 -4 0 -34 -14 -67 -30z"/>
</g>
</svg>
